<?xml version="1.0" encoding="UTF-8"?>
<svg xmlns="http://www.w3.org/2000/svg" viewBox="0 0 74.6 89.6"><path fill="#444445" d="M63.7 10.9C56.7 3.9 47.3 0 37.3 0 27.4 0 18 3.9 10.9 10.9 3.9 18 0 27.4 0 37.3c0 10 3.9 19.3 10.9 26.4 4.6 4.6 10.1 7.8 16.1 9.5l10.2 16.4 10.2-16.3c6-1.7 11.6-4.9 16.2-9.5 14.7-14.6 14.7-38.3.1-52.9z"/><path fill="#FCBC19" d="M60.7 14c-6.2-6.2-14.5-9.7-23.4-9.7-8.8 0-17.1 3.4-23.3 9.7-6.2 6.2-9.7 14.5-9.7 23.4 0 8.8 3.4 17.1 9.7 23.4 6.2 6.2 14.5 9.7 23.4 9.7 8.8 0 17.1-3.4 23.4-9.7 12.8-13 12.8-34-.1-46.8z"/><path fill="#FFF" d="M53.5 32.4c-.7 0-1.4.1-2.1.2-1.7-6.6-2.2-11-2.3-11 0-.6-.5-1-1.1-1-4.9 0-4.9 0-5.7-.8-.4-.4-1.1-.4-1.5 0-.4.4-.4 1.1 0 1.5 1.3 1.3 1.7 1.4 6.3 1.4.1.9.4 2.4.8 4.3H29.4l-1.6-3.3h.3c2.8 0 4-.7 4-1.5 0-.6-.5-.6-1.3-.6h-6.9c-1.2 0-1.4.5-1.4 1.5 0 2.4 1.5 1.7 3.3 1.1l1.9 3.9-2.5 5c-1.2-.5-2.5-.7-3.8-.7-5.9 0-10.8 4.8-10.8 10.7s4.8 10.7 10.8 10.7c5.6 0 10.2-4.2 10.7-9.7h4.4c.1 0 .3 0 .4-.1l.3-.3 11.6-13.5c.2.9.4 1.9.7 2.9-3.9 1.6-6.6 5.5-6.6 9.9 0 5.9 4.8 10.7 10.8 10.7S64.5 48.9 64.5 43s-5.1-10.6-11-10.6zm-24.8-1.8l5.8 11.5h-2.6c-.3-3.4-2.2-6.3-5-8l1.8-3.5zm1 11.5h-6.8l3-6.1c2.1 1.4 3.5 3.6 3.8 6.1zm-8.5 9.7c-4.7 0-8.6-3.9-8.6-8.6s3.9-8.6 8.6-8.6c1 0 2 .2 2.9.5l-3.8 7.6c-.2.3-.1.7 0 1 .2.3.5.5.9.5h8.5c-.5 4.3-4.1 7.6-8.5 7.6zm15.3-10.5l-6-12h16.4l-10.4 12zm17 10.5c-4.7 0-8.6-3.9-8.6-8.6 0-3.5 2.1-6.5 5.1-7.8.7 2.5 1.5 5.2 2.5 8.2.2.4.6.7 1 .7.1 0 .2 0 .4-.1.6-.2.9-.8.7-1.4-1-2.9-1.8-5.6-2.5-8.1.5-.1 1-.1 1.5-.1 4.7 0 8.6 3.9 8.6 8.6s-4 8.6-8.7 8.6z"/></svg>